<?xml version="1.0" encoding="utf-8"?>
<svg xmlns="http://www.w3.org/2000/svg" viewBox="0 0 512 512" style="shape-rendering: geometricprecision;">
  <g transform="matrix(1, 0, 0, 1, 245.164993, 0)">
    <ellipse style="" cx="10.835" cy="256" rx="256" ry="256"/>
    <path class="fil1" d="M -81.294 292.97 C -37.334 250.839 6.576 208.648 50.496 166.467 C 50.526 166.436 50.566 166.406 50.596 166.365 C 74.486 142.443 106.326 129.299 140.136 129.299 C 173.956 129.299 205.775 142.524 229.677 166.436 C 253.619 190.379 266.834 222.157 266.834 256.026 C 266.834 289.844 253.609 321.662 229.697 345.574 C 205.775 369.497 173.976 382.701 140.136 382.701 C 106.726 382.701 74.786 369.811 51.156 346.163 C 51.116 346.133 51.086 346.092 51.046 346.062 L 22.916 319.074 C 21.236 317.471 20.386 315.471 20.386 313.157 C 20.386 310.843 21.236 308.843 22.906 307.24 L 64.656 267.139 C 67.826 264.094 72.836 264.094 76.016 267.139 L 102.956 292.97 C 103.006 292.99 103.036 293.01 103.056 293.041 C 122.856 312.873 157.382 312.863 177.204 293.041 C 187.1 283.145 192.57 269.991 192.57 255.995 C 192.57 241.928 187.069 228.845 177.133 218.899 C 167.258 208.993 154.104 203.533 140.126 203.533 C 125.766 203.533 112.716 209.257 102.546 219.376 C 102.516 219.406 102.476 219.437 102.446 219.467 C 58.526 261.689 14.586 303.891 -29.374 346.062 C -29.414 346.092 -29.454 346.133 -29.494 346.163 C -53.114 369.811 -85.054 382.701 -118.47 382.701 C -125.34 382.701 -132.21 382.163 -139 381.057 C -165.28 376.804 -189.2 364.402 -208.02 345.574 C -231.94 321.662 -245.16 289.844 -245.16 256.026 C -245.16 222.157 -231.95 190.379 -208.01 166.436 C -189.18 147.609 -165.23 135.206 -138.96 130.944 C -132.18 129.847 -125.33 129.299 -118.47 129.299 C -100.54 129.299 -82.854 133.014 -66.504 140.362 C -63.504 141.722 -61.664 144.554 -61.664 147.842 L -61.664 218.584 C -61.664 221.934 -63.574 224.816 -66.654 226.125 C -69.734 227.435 -73.144 226.815 -75.544 224.491 L -80.774 219.467 C -80.804 219.437 -80.844 219.406 -80.874 219.376 C -91.044 209.257 -104.09 203.533 -118.46 203.533 C -132.43 203.533 -145.59 208.993 -155.46 218.899 C -165.4 228.845 -170.9 241.928 -170.9 255.995 C -170.9 269.991 -165.43 283.145 -155.53 293.041 C -135.71 312.863 -101.18 312.873 -81.384 293.041 C -81.364 293.01 -81.334 292.99 -81.294 292.97 Z M -56.124 47.82 C -56.124 44.907 -54.724 42.39 -52.244 40.847 C -37.764 31.865 -22.374 24.374 -6.364 18.518 C -3.784 17.564 -1.114 17.919 1.156 19.492 C 3.406 21.076 4.656 23.461 4.656 26.211 L 4.656 195.596 C 4.656 197.91 3.796 199.909 2.136 201.513 L -42.964 244.892 C -46.144 247.947 -51.154 247.947 -54.334 244.892 L -55.934 243.359 C -56.054 243.237 -56.124 243.085 -56.124 242.902 C -56.124 177.875 -56.124 112.847 -56.124 47.82 Z M 10.196 19.35 C 10.196 15.575 12.666 12.378 16.326 11.413 C 31.346 7.496 46.706 4.979 62.176 3.872 C 64.536 3.71 66.636 4.451 68.356 6.054 C 70.076 7.658 70.966 9.698 70.966 12.053 L 70.966 135.582 C 70.966 138.444 69.616 140.921 67.216 142.473 C 59.146 147.68 51.666 153.739 44.876 160.529 C 44.836 160.57 44.796 160.611 44.756 160.651 L 11.286 192.774 C 11.036 193.018 10.636 193.008 10.396 192.764 L 10.386 192.754 C 10.256 192.632 10.196 192.48 10.196 192.297 L 10.196 19.35 Z" style="stroke-width: 1; fill: rgb(255, 255, 255);"/>
  </g>
</svg>
